<svg width="523" height="397" viewBox="0 0 523 397" fill="none" xmlns="http://www.w3.org/2000/svg">
<g clip-path="url(#clip0_1_356)">
<path d="M317.21 171.647C317.21 231.943 268.435 280.828 208.275 280.828C148.115 280.828 99.3403 231.943 99.3403 171.647C99.3403 111.351 148.115 62.4657 208.275 62.4657C268.435 62.4657 317.21 111.351 317.21 171.647Z" fill="#FFCE26"/>
<path d="M160.115 251.872C160.115 251.872 144.48 255.193 132.454 263.765C132.454 263.765 121.737 278.631 119.438 291.087L104.873 285.006C104.873 285.006 85.2825 294.221 84.6945 312.248C84.6945 312.248 69.5142 326.739 70.7436 337.695C70.7436 337.695 103.189 358.856 116.873 362.74L115.991 396.384H190.877C190.877 396.384 189.3 342.597 188.578 336.195C187.857 329.793 188.124 291.435 186.52 281.256C184.917 271.078 184.329 262.479 176.926 257.765C169.523 253.05 161.505 252.515 160.142 251.818L160.115 251.872Z" fill="#FFCE26"/>
<path d="M353.798 246.434C353.798 246.434 377.851 247.345 390.439 238.371C403.054 229.398 402.493 220.505 403.054 209.844C403.615 199.183 398.323 182.602 398.323 182.602L402.707 178.959L408.239 182.977C408.239 182.977 417.085 180.647 422.938 177.459L428.791 174.245V170.816C428.791 170.816 430.769 170.147 431.223 171.673C431.223 171.673 436.248 188.844 437.557 203.469C438.867 218.094 440.951 239.363 424.969 263.336L391.268 355.91L392.978 396.464H304.221L300.881 340.963L304.596 258.274C304.596 258.274 307.99 252.3 321.192 248.577C321.192 248.577 326.698 247.506 330.413 247.398C334.128 247.264 338.618 246.086 338.618 246.086L352.729 253.666L353.183 246.434H353.771H353.798Z" fill="#FFCE26"/>
<path d="M238.128 236.55C238.128 236.55 223.269 234.3 199.055 270.113C174.841 305.9 183.26 323.445 183.26 323.445C183.26 323.445 185.344 335.659 206.592 332.82C206.592 332.82 206.351 348.517 205.148 362.205C203.919 375.892 200.952 396.438 200.952 396.438H304.221L300.881 340.936C300.881 340.936 315.633 338.124 316.275 319.025C316.916 299.953 309.406 271.988 307.696 266.444C305.985 260.899 300.72 245.122 284.418 239.952C268.115 234.782 245.157 234.487 238.128 236.523V236.55Z" fill="#1A1A1A"/>
<path d="M162.654 139.637C157.523 134.494 149.184 134.494 144.053 139.637L138.975 144.726C133.844 149.869 133.844 158.227 138.975 163.37L176.017 200.522C181.148 205.665 189.487 205.665 194.618 200.522L270.894 125.949C276.026 120.806 276.026 112.449 270.894 107.306L265.816 102.217C260.685 97.0736 252.346 97.0736 247.215 102.217L185.318 162.405L162.627 139.664L162.654 139.637Z" fill="white"/>
<path d="M120.293 208.156L123.153 224.148C123.153 224.148 118.503 227.55 118.369 228.728C118.262 229.907 123.153 233.228 123.153 233.228C123.153 233.228 125.585 246.756 139.403 241.747L140.899 247.104L150.28 243.354C150.28 243.354 148.088 234.461 149.826 227.228C149.826 227.228 153.835 224.362 152.204 218.817C150.574 213.273 143.224 214.719 141.487 217.532C140.552 217.88 125.532 214.585 120.267 208.13L120.293 208.156Z" fill="white"/>
<path d="M84.6945 312.275C84.6945 312.275 75.3405 304.56 71.9997 299.069C68.659 293.605 65.6389 292.158 63.1534 293.926C60.6679 295.694 62.0577 300.141 63.7681 302.123C65.4786 304.105 69.5409 308.9 66.12 310.025C66.12 310.025 65.2648 311.123 62.8862 308.712C60.5076 306.328 50.619 296.364 50.619 296.364C50.619 296.364 49.0956 298.667 49.0421 299.926C49.0421 299.926 46.6368 300.944 47.1713 305.176C47.7058 309.409 50.5121 315.704 58.2626 320.552C66.0131 325.427 71.385 328.266 71.8394 330.597C71.8394 330.597 76.944 317.9 84.7213 312.221L84.6945 312.275Z" fill="white"/>
<path d="M265.442 229.827L264.213 213.648C264.213 213.648 271.188 216.112 273.62 209.442C276.026 202.772 269.798 199.987 266.565 200.442C263.331 200.897 261.674 203.013 261.674 203.013C261.674 203.013 255.447 196.29 253.175 187.21C253.175 187.21 245.611 196.638 235.028 193.022C235.028 193.022 234.654 208.719 234.734 212.764C234.814 216.808 233.023 226.291 243.019 227.175V230.175L248.284 248.577L265.415 229.827H265.442Z" fill="white"/>
<path d="M238.502 284.042C238.502 284.042 234.28 278.765 227.411 277.078C220.542 275.363 215.144 276.756 214.102 279.328C214.102 279.328 203.491 281.256 205.309 288.703C205.309 288.703 209.371 287.042 215.839 288.971C222.306 290.873 226.663 295.373 226.663 295.373C226.663 295.373 232.73 286.801 238.502 284.069V284.042Z" fill="white"/>
<path d="M257.558 293.203C257.558 293.203 259.616 287.846 267.794 290.551C267.794 290.551 274.208 288.489 278.965 291.917C278.965 291.917 281.718 290.605 285.807 292.319C289.87 294.033 292.328 301.185 293.184 304.078C294.039 306.971 292.088 311.98 286.903 309.944C286.449 309.837 285.887 313.855 281.504 313.48C277.095 313.105 275.01 308.257 275.01 308.257C275.01 308.257 273.807 312.623 270.012 312.034C266.217 311.444 265.041 308.578 264.934 307.56C264.827 306.543 265.121 302.284 264.694 301.185C264.266 300.114 261.3 295.266 261.3 295.266L257.558 293.203Z" fill="white"/>
<path d="M355.856 199.103L359.357 217.88C359.357 217.88 362.404 230.684 352.114 231.193L353.798 246.407L353.076 253.854L338.912 246.22C338.912 246.22 343.562 244.666 344.631 238.586C345.7 232.505 344.15 228.675 340.569 226.076C336.987 223.478 334.876 222.059 334.876 222.059C334.876 222.059 327.339 224.657 325.843 218.255C324.346 211.826 330.199 210.433 333.406 211.103C333.406 211.103 339.526 206.469 341.504 201.487C343.482 196.504 344.471 190.665 344.471 190.665C344.471 190.665 353.691 196.129 355.856 199.103Z" fill="white"/>
<path d="M407.758 182.602C407.758 182.602 400.862 177.861 397.682 175.638C394.502 173.415 392.604 169.932 393.139 166.664C393.673 163.397 400.301 153.914 401.931 153.271C403.589 152.628 405.887 153.807 406.315 157.155C406.715 160.477 406.368 158.629 406.368 158.629C406.368 158.629 414.519 158.334 418.822 157.45C423.125 156.566 427.775 155.173 427.775 155.173C427.775 155.173 429.379 166.906 428.818 174.272C428.818 174.272 423.927 178.343 417.299 180.218C410.671 182.093 407.758 182.656 407.758 182.656V182.602Z" fill="white"/>
<path d="M99.3404 287.551L86.0041 278.765L77.7993 283.989L68.2581 282.542L79.7235 275.122C79.7235 275.122 74.0309 274.212 71.1712 275.926C68.3115 277.64 63.2069 282.006 63.2069 282.006C63.2069 282.006 59.3851 282.488 58.8773 285.06C58.3962 287.631 61.6301 290.417 66.8416 291.301C72.0264 292.158 78.7347 292.265 78.7347 292.265C78.7347 292.265 81.3271 297.542 87.7948 300.435C87.7948 300.435 92.6054 293.792 94.0754 292.292C95.5453 290.819 99.3404 287.578 99.3404 287.578V287.551Z" fill="white"/>
<path d="M243.046 230.202L238.128 236.55L238.689 261.943L237.914 283.185L242.191 285.837L249.059 285.649L256.596 262.934L258.6 266.47L272.07 236.309L263.865 227.952L243.046 230.202Z" fill="white"/>
<path d="M248.284 248.577L242.03 258.274L243.019 265.881L238.689 274.104L238.262 283.399L242.19 285.837L249.059 285.649L250.529 281.203L250.369 279.354L249.059 265.881L254.164 259.184L248.284 248.577Z" fill="#FFCE26"/>
<path d="M271.99 201.969C271.99 201.969 276.079 198.46 274.93 190.986C273.781 183.513 272.444 178.933 257.745 180.218C257.745 180.218 251.919 172.986 243.099 175.477C234.253 177.942 231.286 182.87 230.511 187.344C229.71 191.817 234.52 199.531 234.52 199.531L234.413 193.022C234.413 193.022 246.226 196.022 253.202 187.236C253.202 187.236 257.665 200.013 261.7 203.04C261.7 203.04 264.881 197.817 272.017 201.996L271.99 201.969Z" fill="white"/>
<path d="M189.781 285.837C189.781 285.837 193.977 272.953 192.373 260.979C190.77 249.006 185.799 241.023 177.353 238.505C168.908 235.987 165.006 229.853 163.937 225.648C162.841 221.442 163.857 211.157 161.852 203.067C159.848 194.978 153.006 191.254 144.534 191.897C144.534 191.897 121.309 189.54 119.438 207.112C119.438 207.112 125.665 215.228 140.605 217.907C141.273 217.8 142.69 215.442 146.485 215.308C150.28 215.174 152.659 218.094 152.846 221.121C153.006 224.148 150.093 226.639 150.093 226.639C150.093 226.639 148.463 231.702 149.104 237.943C149.719 244.184 153.888 250.131 160.596 252.032C167.304 253.934 178.209 255.247 181.763 263.524C185.318 271.828 186.734 280.613 186.841 284.765C186.948 288.944 187.135 291.81 187.135 291.81L189.861 285.81L189.781 285.837Z" fill="#1A1A1A"/>
<path d="M59.4385 288.435L62.2714 293.873L66.2269 291.14C66.2269 291.14 60.2937 288.596 59.9195 287.98C59.5454 287.364 59.4652 288.408 59.4652 288.408L59.4385 288.435Z" fill="#1A1A1A"/>
<path d="M77.3716 284.122L91.1889 275.47L87.6076 270.113L68.0443 282.863C68.0443 282.863 75.4741 284.417 77.3716 284.149V284.122Z" fill="#1A1A1A"/>
<path d="M132.614 366.946C132.614 366.946 131.786 352.213 146.512 347.981C161.211 343.749 167.438 353.231 167.438 353.231C167.438 353.231 159.394 363.437 150.039 365.365C140.685 367.294 132.641 366.946 132.641 366.946H132.614Z" fill="#1A1A1A"/>
<path d="M63.1267 301.266L29.2916 267.461C29.2916 267.461 26.9665 265.961 25.55 267.461C24.1335 268.961 25.55 271.211 25.55 271.211L64.3026 310.186C64.3026 310.186 65.9864 310.132 66.9218 309.194C67.8572 308.284 67.002 306.248 66.708 305.739C66.414 305.23 63.1267 301.266 63.1267 301.266Z" fill="#1A1A1A"/>
<path d="M150.307 243.354C150.307 243.354 139.055 247.023 136.89 250.238C134.725 253.425 132.48 263.765 132.48 263.765C132.48 263.765 147.661 253.399 160.142 251.872C160.142 251.872 152.819 250.184 150.333 243.354H150.307Z" fill="white"/>
<path d="M139.803 241.238L142.396 239.952L140.926 245.041L139.803 241.238Z" fill="#B5B5B5"/>
<path d="M312.72 252.059C312.72 252.059 305.905 248.041 308.551 238.425C311.197 228.809 321.299 229.934 321.299 229.934L312.293 203.978C312.293 203.978 312.293 186.647 331.829 185.388C331.829 185.388 338.858 182.281 344.952 183.218C351.045 184.129 355.428 189.62 356.765 196.906C356.845 197.656 334.823 202.826 334.823 202.826C334.823 202.826 332.685 198.085 329.798 196.906C329.798 196.906 333.593 205.424 333.433 211.103C333.433 211.103 326.11 209.603 325.976 216.326C325.843 223.05 331.829 223.559 334.929 222.085C334.929 222.085 344.551 226.13 345.005 235.371C345.46 244.613 337.094 246.997 337.094 246.997C337.094 246.997 327.767 246.782 322.048 248.55C316.328 250.318 312.774 252.086 312.774 252.086L312.72 252.059Z" fill="#1A1A1A"/>
<path d="M352.114 231.219L354.145 246.434L362.591 246.086C362.591 246.086 364.702 240.38 363.286 236.309C361.843 232.237 356.791 229.425 356.791 229.425C356.791 229.425 354.493 231.38 352.114 231.219Z" fill="#FFCE26"/>
<path d="M487.294 76.4749C487.294 118.717 453.138 152.95 410.992 152.95C368.845 152.95 334.689 118.717 334.689 76.4749C334.689 34.2329 368.845 0 410.992 0C453.138 0 487.294 34.2329 487.294 76.4749Z" fill="#1A1A1A"/>
<path d="M450.867 100.583C449.103 113.279 439 122.655 424.194 125.333C422.591 125.628 421.014 126.003 419.063 126.431V140.307H406.421V126.351C388.221 124.342 377.878 114.833 374.056 98.4397C380.765 96.8325 387.099 95.2789 393.887 93.645C394.395 94.9843 394.929 96.2164 395.357 97.4486C398.778 107.386 409.896 112.208 420.346 108.27C425.156 106.449 427.401 102.833 427.749 98.3058C428.069 94.1807 426.145 90.7788 421.976 89.0109C416.577 86.7341 411.018 84.8055 405.539 82.7429C402.626 81.6447 399.66 80.7072 396.827 79.5018C382.582 73.3945 376.301 63.1353 378.065 49.0725C379.802 35.3847 388.462 26.9202 403.802 23.9202C404.417 23.7862 405.032 23.5987 406.021 23.3309V12.6699H418.502L418.796 23.1969C418.796 23.1969 421.575 23.4916 428.738 26.0095C438.947 29.5989 444.666 36.6972 447.927 46.5546C442.074 48.8047 436.221 51.0279 430.368 53.2512C428.176 50.01 426.412 46.7421 423.98 43.9563C420.185 39.5902 414.84 38.4651 409.201 39.8848C404.764 40.9831 401.905 43.9028 401.156 48.2689C400.381 52.7958 401.825 56.4655 406.475 58.5281C411.098 60.5371 415.856 62.2514 420.559 64.0997C424.515 65.6265 428.55 66.9926 432.399 68.7069C447.178 75.2428 452.978 85.3948 450.867 100.609V100.583Z" fill="#FFCE26"/>
<path d="M447.739 319.849C454.711 293.587 439.121 266.633 412.918 259.645C386.715 252.657 359.821 268.282 352.849 294.544C345.877 320.806 361.467 347.761 387.67 354.749C413.873 361.736 440.767 346.111 447.739 319.849Z" fill="white"/>
<path d="M344.872 303.141L394.181 303.194L394.421 253.881C394.421 253.881 375.152 252.461 359.704 268.185C344.23 283.908 344.872 303.114 344.872 303.114V303.141Z" fill="#1A1A1A"/>
<path d="M342.039 314.9C342.039 314.9 344.337 310.346 345.86 306.248C347.384 302.15 347.972 298.025 351.874 297.65C351.874 297.65 351.313 306.194 351.446 308.418C351.553 310.641 350.965 313.507 353.771 313.078C356.578 312.677 360.266 311.337 364.328 307.346C368.39 303.355 371.491 298.614 374.938 300.141C378.386 301.694 376.488 304.641 376.488 304.641C376.488 304.641 378.52 304.802 380.043 306.677C381.566 308.552 379.589 310.346 379.589 310.346C379.589 310.346 381.967 311.257 381.994 313.507C381.994 315.757 379.829 318.998 374.885 323.525C369.941 328.079 362.163 335.07 356.631 336.008C356.631 336.008 352.782 329.07 349.522 324.302C346.288 319.534 341.638 314.873 341.638 314.873H342.039V314.9Z" fill="white"/>
<path d="M357.941 340.561C357.941 340.561 344.31 370.669 303.633 383.098L302.939 375.705C302.939 375.705 329.29 371.901 357.914 340.561H357.941Z" fill="#1A1A1A"/>
<path d="M167.438 353.231C167.438 353.231 156.4 378.785 116.204 374.874L116.632 363.464C116.632 363.464 130.209 368.285 141.835 366.973C153.46 365.66 164.685 358.91 167.465 353.231H167.438Z" fill="#1A1A1A"/>
<path d="M407.945 182.977L402.706 178.959C402.706 178.959 397.602 181.397 398.323 183.245C399.072 185.093 407.945 182.977 407.945 182.977Z" fill="#1A1A1A"/>
<path d="M428.818 170.816L428.925 174.54C428.925 174.54 430.876 172.825 430.876 171.674C430.876 170.522 428.791 170.816 428.791 170.816H428.818Z" fill="#1A1A1A"/>
<path d="M140.953 191.817C134.378 191.951 120.828 193.879 119.411 207.139C119.411 207.139 121.79 210.219 127.082 213.192C127.162 213.192 120.561 196.022 140.953 191.817Z" fill="white"/>
<path d="M167.064 253.559C146.164 248.791 151.456 225.193 151.456 225.193C150.521 226.184 150.039 226.612 150.039 226.612C150.039 226.612 148.409 231.675 149.051 237.916C149.665 244.157 153.835 250.104 160.543 252.006C163.376 252.809 166.957 253.506 170.405 254.658C169.576 254.229 168.48 253.854 167.064 253.532V253.559Z" fill="white"/>
<path d="M344.925 183.218C338.831 182.308 331.803 185.388 331.803 185.388C350.243 184.156 350.537 199.022 350.537 199.022L356.818 197.656C355.428 189.62 351.019 184.156 344.925 183.218Z" fill="white"/>
<path d="M344.952 235.345C344.497 226.103 334.876 222.059 334.876 222.059C334.876 222.059 341.878 226.157 340.408 236.202C339.313 243.648 333.246 246.3 330.172 247.184C333.914 246.916 337.041 246.97 337.041 246.97C337.041 246.97 345.406 244.586 344.952 235.345Z" fill="white"/>
<path d="M357.941 246.086C357.86 246.273 362.591 246.086 362.591 246.086C362.591 246.086 364.702 240.38 363.286 236.309C361.843 232.237 356.791 229.425 356.791 229.425C356.791 229.425 356.257 229.853 355.455 230.309C357.246 231.568 362.511 236.336 357.941 246.086Z" fill="white"/>
<path d="M249.059 251.229L245.077 258.542L246.226 266.202L238.689 284.364L238.128 274.292L242.698 265.774L241.763 257.818L248.15 248.979L249.059 251.229Z" fill="white"/>
<path d="M321.273 230.523C315.58 213.353 311.731 204.54 311.705 204.46C311.357 201.406 312.854 195.245 317.183 190.611C320.925 186.593 326.003 184.558 331.829 184.852C326.27 185.736 321.54 187.611 318.012 191.388C313.976 195.701 312.533 201.38 312.8 204.085C313.201 205.022 316.943 213.835 321.834 229.8C321.406 230.523 321.353 230.55 321.299 230.55L321.273 230.523Z" fill="#1A1A1A"/>
<path d="M345.379 232.023C344.952 232.023 344.551 232.023 344.15 232.023C346.128 230.925 348.907 230.818 350.805 230.684C352.702 230.523 354.119 230.175 355.295 229.585C357.192 228.621 358.315 226.88 358.716 224.228C359.384 219.835 358.555 215.362 357.78 210.996C357.085 207.219 355.108 198.138 355.108 198.031C356.23 197.87 358.208 206.978 358.796 210.165C359.704 215.228 360.56 219.808 359.865 224.389C359.41 227.416 358.074 229.425 355.829 230.577C354.119 231.461 352.221 231.675 350.912 231.782C349.362 231.916 347.223 232.023 345.406 232.023H345.379Z" fill="#1A1A1A"/>
<path d="M342.44 207.942C342.867 207.808 343.215 207.942 343.615 209.549C344.07 211.344 343.642 211.746 343.241 211.773C342.84 211.826 342.333 211.344 342.146 210.032C341.958 208.746 341.878 208.13 342.466 207.942H342.44Z" fill="#1A1A1A"/>
<path d="M355.348 205.317C355.776 205.156 356.123 205.29 356.578 206.871C357.085 208.639 356.684 209.04 356.284 209.121C355.883 209.174 355.375 208.719 355.134 207.433C354.894 206.148 354.814 205.531 355.375 205.317H355.348Z" fill="#1A1A1A"/>
<path d="M352.462 201.808C354.52 199.692 355.856 200.228 356.658 200.71C355.402 201.272 354.466 200.951 352.676 201.754C352.595 201.781 352.515 201.808 352.435 201.808H352.462Z" fill="#1A1A1A"/>
<path d="M339.82 204.915C341.37 201.621 344.578 201.969 344.684 201.996C344.524 203.121 341.825 202.826 340.248 204.701C340.141 204.835 339.981 204.915 339.82 204.915Z" fill="#1A1A1A"/>
<path d="M331.589 223.318C328.275 223.318 325.442 220.8 325.094 217.451C324.72 213.862 327.339 210.648 330.921 210.273C332.23 210.165 333.513 210.407 334.662 211.023C333.166 211.532 332.097 211.317 331.028 211.424C328.088 211.719 325.923 214.371 326.217 217.344C326.511 220.291 329.157 222.46 332.123 222.166C333.085 222.059 334.021 221.71 334.796 221.121C334.529 222.755 333.406 223.184 332.23 223.318C332.016 223.318 331.776 223.344 331.562 223.344L331.589 223.318Z" fill="#1A1A1A"/>
<path d="M330.814 220.559C330.386 219.594 333.326 216.433 333.326 216.433L329.077 214.264C329.584 213.246 334.502 215.764 334.502 215.764C334.662 216.675 331.215 220.398 331.215 220.398C331.108 220.505 330.947 220.585 330.787 220.585L330.814 220.559Z" fill="#1A1A1A"/>
<path d="M353.076 254.443C352.809 254.363 338.644 246.729 338.644 246.729C339.179 245.711 352.622 252.97 352.622 252.97L353.557 246.407L351.553 231.273C352.676 231.139 354.707 246.327 354.707 246.327C354.707 246.488 353.638 253.934 353.638 253.934C353.237 254.416 353.157 254.416 353.076 254.416V254.443Z" fill="#1A1A1A"/>
<path d="M312.72 252.622C305.959 247.479 306.306 240.996 308.765 236.63C311.411 231.889 317.371 228.246 322.769 230.282C317.558 229.532 312.186 232.88 309.78 237.193C306.894 242.336 308.123 247.72 313.094 251.604C313.094 252.541 312.907 252.622 312.747 252.622H312.72Z" fill="#1A1A1A"/>
<path d="M362.591 246.648C363.58 241.854 363.66 238.345 362.324 235.425C360.48 231.38 356.471 229.88 356.417 229.853C356.978 228.835 361.308 230.443 363.366 234.943C364.836 238.13 364.756 241.961 363.125 246.273C363.045 246.488 362.831 246.648 362.591 246.648Z" fill="#1A1A1A"/>
<path d="M335.223 247.827C335.544 246.675 343.776 246.273 344.337 236.416C344.898 226.452 334.154 222.701 334.048 222.675C334.529 221.63 346.101 225.675 345.486 236.47C344.872 247.372 335.357 247.8 335.25 247.8L335.223 247.827Z" fill="#1A1A1A"/>
<path d="M354.653 217.612C354.894 216.005 356.043 214.13 356.016 213.058C355.535 212.362 354.52 213.032 353.985 213.38C353.397 213.755 353.023 213.996 352.595 213.889C351.927 213.005 350.324 207.808 350.003 206.764C351.713 208.398 352.649 211.451 353.05 212.603C354.252 211.826 355.615 210.942 356.604 211.773C356.845 211.987 357.139 212.362 357.166 213.005C357.219 214.505 355.829 216.701 355.054 217.425C354.947 217.532 354.787 217.585 354.653 217.585V217.612Z" fill="#1A1A1A"/>
<path d="M349.816 222.648C349.228 222.648 348.667 222.514 348.159 222.273C346.235 221.362 345.62 219.112 345.593 219.005C346.689 218.737 347.223 220.558 348.64 221.228C349.495 221.63 350.537 221.55 351.74 220.987C351.366 222.434 350.564 222.621 349.789 222.621L349.816 222.648Z" fill="#1A1A1A"/>
<path d="M77.7992 284.551C77.5052 283.506 90.4139 275.283 90.4139 275.283L87.6344 270.89L68.5788 282.997C67.9641 282.033 87.5008 269.604 87.5008 269.604C88.2758 269.765 91.6967 275.149 91.6967 275.149C91.5096 275.953 78.1199 284.471 78.1199 284.471C78.013 284.524 77.9061 284.551 77.826 284.551H77.7992Z" fill="#1A1A1A"/>
<path d="M91.2157 276.033C90.9217 274.988 93.033 273.622 93.033 273.622L90.2535 269.229L88.1154 270.569C87.5008 269.604 90.1199 267.944 90.1199 267.944C90.8949 268.131 94.2891 273.488 94.2891 273.488C94.1021 274.265 91.5096 275.926 91.5096 275.926C91.4027 275.979 91.2958 276.006 91.2157 276.006V276.033Z" fill="#1A1A1A"/>
<path d="M56.8461 295.292C56.7659 294.141 61.8706 293.444 61.8706 293.444L66.0398 290.792C66.6545 291.757 62.3784 294.462 62.3784 294.462C62.1378 294.542 56.9263 295.266 56.9263 295.266C56.9263 295.266 56.8728 295.266 56.8461 295.266V295.292Z" fill="#1A1A1A"/>
<path d="M55.6167 293.926C55.1356 293.042 58.6367 287.658 58.6367 287.658C59.5989 288.274 56.0978 293.658 56.0978 293.658C55.9908 293.819 55.8038 293.926 55.6167 293.926Z" fill="#1A1A1A"/>
<path d="M76.062 292.855C65.5588 292.855 61.3628 290.257 59.7592 288.623C58.7436 287.605 58.2358 286.426 58.316 285.274C58.5298 281.497 63.9017 281.39 64.1423 281.363C64.4095 281.417 77.6389 284.739 82.6634 283.212C77.7992 285.864 65.3182 282.837 64.0888 282.515C63.5276 282.515 59.5989 282.783 59.4652 285.328C59.4118 286.158 59.8127 287.015 60.5877 287.792C61.8973 289.105 66.3071 292.132 78.895 291.623C77.9329 292.801 76.9975 292.828 76.0888 292.828L76.062 292.855Z" fill="#1A1A1A"/>
<path d="M63.1267 282.622C62.9129 281.444 67.5098 276.837 70.9574 275.363C74.4585 273.837 79.3226 274.854 79.5364 274.881C79.2424 276.006 74.5654 275.042 71.4117 276.408C68.1779 277.801 63.581 282.408 63.5543 282.462C63.4474 282.569 63.2871 282.622 63.1534 282.622H63.1267Z" fill="#1A1A1A"/>
<path d="M99.3403 287.685C99.0196 287.578 86.0308 279.033 86.0308 279.033C86.6455 278.069 99.6611 286.64 99.6611 286.64C99.7145 287.605 99.5274 287.685 99.3403 287.685Z" fill="#1A1A1A"/>
<path d="M88.3025 300.971C82.503 298.4 79.2692 295.641 78.2001 292.453C80.2313 294.944 83.2513 297.516 88.5431 299.873C88.7302 300.837 88.5431 300.971 88.3025 300.971Z" fill="#1A1A1A"/>
<path d="M125.799 228.38C124.944 228.38 124.142 227.791 123.955 226.907L122.031 218.898C121.79 217.853 122.432 216.835 123.447 216.594C123.928 216.487 124.436 216.541 124.89 216.808C125.318 217.076 125.639 217.505 125.746 217.987L127.67 225.996C127.91 227.014 127.296 228.059 126.253 228.3C126.093 228.327 125.959 228.353 125.799 228.353V228.38ZM123.875 217.692C123.287 217.8 123.02 218.228 123.126 218.63L125.051 226.639C125.158 227.041 125.559 227.309 125.959 227.202C126.36 227.094 126.628 226.693 126.521 226.291L124.596 218.282C124.115 217.746 123.982 217.692 123.848 217.692H123.875Z" fill="#1A1A1A"/>
<path d="M126.146 222.728C126.013 221.603 141.113 217.719 141.113 217.719C141.38 218.817 126.28 222.701 126.28 222.701C126.227 222.701 126.173 222.701 126.146 222.701V222.728Z" fill="#1A1A1A"/>
<path d="M116.017 396.089C115.322 386.071 115.563 372.865 116.044 363.437C116.712 372.892 116.472 386.071 116.579 395.5C116.017 396.089 116.017 396.089 116.017 396.089Z" fill="#1A1A1A"/>
<path d="M116.873 321.141C116.418 318.596 116.525 316.748 116.605 314.954C117.808 293.069 118.369 283.078 131.973 263.443C132.774 262.854 148.169 252.381 160.035 251.309C148.997 253.452 134.111 263.336 132.855 264.193C119.492 283.506 118.93 293.391 117.728 315.034C117.621 316.802 117.541 318.677 117.407 320.605C117.407 320.9 117.14 321.141 116.846 321.141H116.873Z" fill="#1A1A1A"/>
<path d="M190.877 396.089C190.289 395.152 188.872 356.713 187.723 330.088C189.995 356.687 191.411 395.125 191.438 395.5C190.877 396.089 190.877 396.089 190.877 396.089Z" fill="#1A1A1A"/>
<path d="M138.12 367.856C125.799 367.856 113.933 362.847 103.884 357.865C92.3649 352.16 81.3538 345.168 70.7169 338.392C70.1022 337.534 68.9797 330.516 77.4251 319.213C85.042 309.007 91.4295 309.061 91.7235 309.061C91.9373 309.114 93.2468 309.677 93.2468 309.677C105.247 314.98 117.22 320.311 129.193 325.641C133.897 327.731 137.158 327.248 139.189 324.168C140.632 321.972 141.006 319.132 141.354 316.668L141.968 311.927C143.117 303.168 144.32 294.087 145.603 285.194C145.469 294.248 144.267 303.328 143.091 312.087L142.476 316.829C142.129 319.427 141.728 322.4 140.151 324.811C137.799 328.4 133.95 329.016 128.739 326.713C116.766 321.382 104.766 316.079 92.7925 310.775L91.6165 310.239C90.8148 310.293 85.0954 310.936 78.3605 319.936C71.091 329.659 71.1712 336.115 71.2781 337.427C81.9685 344.231 92.9529 351.222 104.392 356.874C114.841 362.044 127.242 367.24 139.964 366.705C159.821 365.847 173.077 349.079 177.38 332.82C179.331 325.507 181.095 317.391 181.122 317.311C182.217 317.632 180.427 325.775 178.476 333.115C174.039 349.776 160.436 366.999 139.991 367.856C139.349 367.883 138.734 367.91 138.093 367.91L138.12 367.856Z" fill="#1A1A1A"/>
<path d="M84.6945 312.837C84.0798 312.114 83.0108 305.9 91.4562 294.596C99.0731 284.39 105.434 284.444 105.755 284.444C105.968 284.497 119.679 290.578 119.679 290.578C119.224 291.623 105.621 285.596 105.621 285.596C104.819 285.649 99.0998 286.292 92.3649 295.292C84.2669 306.114 85.2558 312.114 85.2558 312.168C84.7747 312.837 84.7212 312.837 84.6945 312.837Z" fill="#1A1A1A"/>
<path d="M124.81 215.871C125.238 213.969 127.59 212.576 130.289 214.103C127.135 213.621 125.318 215.603 125.238 215.683C125.131 215.817 124.971 215.871 124.81 215.871Z" fill="#1A1A1A"/>
<path d="M189.46 287.685C196.035 264.327 191.438 245.122 177.487 239.175C163.536 233.202 163.349 227.469 163.028 217.987C162.921 214.692 162.788 210.942 162.066 206.523C159.394 190.236 145.202 192.353 144.614 192.46C142.743 192.272 141.193 192.326 138.708 192.674C126.36 194.388 120.587 198.647 120 206.576C119.465 198.058 125.719 193.29 138.547 191.549C140.712 191.254 142.449 191.094 144.48 191.308C145.068 191.228 148.703 190.772 152.685 192.219C156.641 193.638 161.665 197.254 163.162 206.335C163.883 210.808 164.017 214.585 164.124 217.933C164.418 227.282 164.605 232.425 177.888 238.104C192.427 244.318 197.291 264.06 189.968 287.256C189.888 287.498 189.674 287.658 189.433 287.658L189.46 287.685Z" fill="#1A1A1A"/>
<path d="M133.362 243.327C131.705 243.327 130.209 242.979 128.873 242.282C124.356 239.952 123.1 234.568 122.859 233.255C121.202 232.264 117.861 230.175 117.808 228.782C117.755 227.335 120.881 225.032 122.538 223.907L119.919 208.665C121.042 208.478 123.741 224.068 123.741 224.068C121.069 226.237 118.957 228.139 118.984 228.702C119.037 229.237 121.229 230.952 123.688 232.371C123.982 232.853 124.89 238.934 129.407 241.238C132.534 242.845 136.703 242.309 141.728 239.657C138.948 242.416 135.955 243.273 133.362 243.273V243.327Z" fill="#1A1A1A"/>
<path d="M128.285 219.487C127.83 219.541 127.59 219.835 127.964 221.442C128.365 223.237 128.926 223.398 129.3 223.264C129.701 223.13 129.915 222.46 129.514 221.228C129.113 219.969 128.899 219.407 128.285 219.487Z" fill="#1A1A1A"/>
<path d="M125.264 237.112C125.799 236.095 126.841 235.853 127.536 235.211C128.712 234.139 128.632 232.237 128.632 232.211C129.781 232.264 129.861 234.595 128.311 236.041C127.536 236.764 126.521 237.112 125.264 237.112Z" fill="#1A1A1A"/>
<path d="M146.592 228.246C145.897 228.246 145.229 228.139 144.561 227.925C146.004 227.202 147.18 227.175 148.276 226.827C149.719 226.371 150.895 225.407 151.59 224.068C152.284 222.728 152.445 221.201 151.99 219.755C151.536 218.308 150.547 217.13 149.211 216.433C147.875 215.737 146.351 215.603 144.908 216.032C143.037 216.621 141.621 218.094 141.113 219.996C140.605 217.425 142.316 215.63 144.561 214.933C146.298 214.398 148.115 214.558 149.745 215.416C151.349 216.273 152.525 217.692 153.059 219.407C153.594 221.148 153.434 222.996 152.578 224.603C151.723 226.21 150.307 227.389 148.596 227.952C147.928 228.166 147.26 228.246 146.565 228.246H146.592Z" fill="#1A1A1A"/>
<path d="M148.917 224.255C148.757 224.255 143.839 222.809 143.839 222.809C143.545 221.925 146.672 217.585 146.672 217.585C147.607 218.255 144.935 221.951 144.935 221.951L149.077 223.13C149.398 224.094 149.157 224.255 148.917 224.255Z" fill="#1A1A1A"/>
<path d="M132.481 264.354C131.946 263.417 132.507 256.104 135.875 250.988C138.333 247.238 146.485 244.023 149.852 242.818C143.411 246.327 138.414 249.193 136.837 251.604C133.63 256.479 133.068 263.738 133.068 263.818C133.068 264.113 132.801 264.354 132.507 264.354H132.481Z" fill="#1A1A1A"/>
<path d="M187.055 292.935C186.494 280.935 184.65 270.595 182.939 266.658C181.736 263.872 180.16 261.542 178.262 259.693C174.948 256.452 170.618 255.327 166.022 254.095C162.788 253.238 159.447 252.354 156.534 250.693C148.57 246.139 147.206 235.398 149.371 226.773C148.409 235.237 149.665 245.416 157.095 249.702C159.875 251.309 163.135 252.166 166.289 252.997C170.832 254.202 175.509 255.434 179.037 258.89C181.042 260.845 182.699 263.309 183.955 266.202C185.719 270.247 187.589 280.774 187.589 292.373C187.589 292.694 187.322 292.935 187.028 292.935H187.055Z" fill="#1A1A1A"/>
<path d="M141.514 218.416C125.077 215.844 119.198 207.781 118.957 207.46C119.946 206.871 125.772 214.826 141.594 217.291C142.022 218.228 141.781 218.442 141.514 218.442V218.416Z" fill="#1A1A1A"/>
<path d="M140.926 248.041C140.365 247.613 138.868 241.639 138.868 241.639C139.964 241.371 141.487 247.345 141.487 247.345C141.033 248.041 140.979 248.068 140.926 248.068V248.041Z" fill="#1A1A1A"/>
<path d="M84.6945 312.864C84.3204 312.703 83.3582 311.98 78.5476 307.56C76.5966 305.766 74.9663 304.025 73.5765 302.257C72.9084 301.426 72.3204 300.542 71.7057 299.685C70.8505 298.453 69.9418 297.167 68.9529 296.042C68.6322 295.694 68.3115 295.373 67.9908 295.051C67.5365 294.623 66.8951 294.087 66.1467 293.819C65.3984 293.551 64.5164 293.685 63.7681 294.194C62.9396 294.757 62.3784 295.641 62.3249 296.551C62.218 297.998 63.1 299.498 63.9017 300.784C64.3561 301.48 64.8104 302.15 65.2915 302.819C65.826 303.569 66.3873 304.373 66.8951 305.176C67.6968 306.328 69.1133 308.337 66.4942 310.48C65.9329 310.909 65.0242 311.284 63.7414 310.507C65.1044 309.998 65.5053 309.811 65.7726 309.596C67.5632 308.123 66.7881 307.025 66.1735 306.141C65.4519 304.989 64.8906 304.239 64.3561 303.489C63.875 302.793 63.3672 302.123 62.9129 301.4C62.0042 299.953 61.0421 298.266 61.149 296.471C61.2291 295.212 61.9775 293.98 63.1267 293.23C64.169 292.533 65.4251 292.346 66.4942 292.721C67.4296 293.042 68.2046 293.685 68.7391 294.194C69.1133 294.542 69.4607 294.891 69.7815 295.266C70.8505 296.444 71.7592 297.757 72.6411 299.016C73.2291 299.873 73.8438 300.73 74.4852 301.534C75.8215 303.248 77.4251 304.935 79.3226 306.703C84.0531 311.043 85.0152 311.793 85.042 311.819C85.042 312.757 84.8549 312.837 84.6945 312.837V312.864Z" fill="#1A1A1A"/>
<path d="M58.2358 314.123C47.6524 305.739 47.1178 301.212 49.6034 296.578C48.7214 300.623 47.9196 304.48 58.5833 313.078C58.5833 314.016 58.3962 314.096 58.2358 314.096V314.123Z" fill="#1A1A1A"/>
<path d="M71.8126 331.213C70.1289 328.427 68.2314 327.356 65.0777 325.588C63.875 324.918 62.512 324.141 60.9619 323.15C54.7347 319.213 49.6034 313.748 47.5722 308.927C44.5522 301.748 48.9619 298.105 49.0154 298.078C49.5766 299.096 45.9419 302.123 48.6145 308.498C50.5655 313.132 55.5098 318.382 61.5499 322.213C63.0732 323.177 64.4363 323.927 65.6122 324.623C68.846 326.445 70.9574 327.65 72.2937 330.409C71.9463 331.213 71.8661 331.24 71.7859 331.24L71.8126 331.213Z" fill="#1A1A1A"/>
<path d="M132.721 367.187C131.171 358.294 137.264 350.124 146.672 347.258C154.77 344.793 163.295 346.99 167.892 352.749C162.681 348.061 154.636 345.999 146.993 348.356C138.28 351.008 132.374 358.829 133.282 366.544C132.748 367.187 132.748 367.187 132.721 367.187Z" fill="#1A1A1A"/>
<path d="M400.595 307.721H380.257C380.257 306.569 400.007 306.569 400.007 306.569V257.899C401.156 257.899 401.156 307.159 401.156 307.159C401.156 307.48 400.889 307.721 400.595 307.721Z" fill="#1A1A1A"/>
<path d="M364.328 307.721H351.473C351.473 306.569 364.328 306.569 364.328 306.569C364.889 307.453 364.649 307.721 364.328 307.721Z" fill="#1A1A1A"/>
<path d="M433.735 344.07C443.41 333.865 449.156 320.766 449.156 307.132C449.156 280.292 427.375 258.461 400.595 258.461C377.584 258.461 357.566 274.828 352.996 297.408C356.551 274.078 377.05 257.336 400.595 257.336C428.016 257.336 450.305 279.676 450.305 307.159C450.305 321.114 444.399 334.534 434.109 343.936C434.003 344.043 433.869 344.097 433.735 344.097V344.07Z" fill="#1A1A1A"/>
<path d="M351.66 312.596C351.072 311.953 350.885 309.141 350.885 307.132C350.885 303.784 351.206 300.435 351.874 297.167C352.355 300.569 352.034 303.864 352.034 307.132C352.034 309.114 352.248 311.953 352.248 311.98C351.713 312.596 351.687 312.596 351.687 312.596H351.66Z" fill="#1A1A1A"/>
<path d="M400.595 356.954C383.838 356.954 368.952 349.133 359.758 335.525C369.7 348.169 384.239 355.803 400.595 355.803C403.401 355.803 406.234 355.562 408.96 355.079C406.341 356.687 403.482 356.954 400.595 356.954Z" fill="#1A1A1A"/>
<path d="M411.633 146.093H398.992C398.43 145.53 398.43 132.083 398.43 132.083C380.604 129.967 370.021 120.699 366.065 103.797C366.493 103.101 386.324 98.3058 386.324 98.3058C386.992 98.654 387.446 99.8326 387.446 99.8326C387.793 100.743 388.141 101.6 388.462 102.484C389.985 106.958 393.219 110.52 397.495 112.529C402.172 114.726 407.571 114.886 412.702 112.931C417.005 111.297 419.384 108.11 419.731 103.449C420.025 99.4308 418.101 96.3236 414.306 94.7164C410.457 93.1092 406.475 91.636 402.6 90.2163C401.023 89.627 399.446 89.0645 397.869 88.4752C396.88 88.1002 395.865 87.752 394.849 87.3769C392.952 86.7073 391.001 86.0108 389.13 85.2073C374.644 78.9928 368.203 68.5462 370.047 54.1887C371.811 40.2062 380.631 31.5811 396.239 28.5274C396.64 28.4471 397.014 28.3399 397.495 28.206C398.003 28.072 398.003 17.8397 398.003 17.8397C398.564 17.2772 411.072 17.2772 411.072 17.2772C411.633 17.8397 411.927 27.8845 411.927 27.8845C413.023 28.072 415.936 28.7149 421.495 30.6703C431.25 34.099 437.45 40.742 441.058 51.5636C440.711 52.2869 423.179 58.9835 423.179 58.9835C421.816 57.7513 421.147 56.7066 420.506 55.7155C419.116 53.519 417.78 51.4297 416.15 49.5547C412.729 45.6171 407.651 44.2242 401.931 45.6707C397.655 46.7421 395.009 49.4743 394.315 53.5994C393.539 58.1799 395.197 61.421 399.312 63.2157C402.6 64.6622 406.047 65.9747 409.388 67.2336C410.724 67.7426 412.061 68.2515 413.37 68.7605C414.706 69.2694 416.043 69.7783 417.379 70.2873C419.971 71.2516 422.671 72.2427 425.236 73.3945C440.23 80.0375 446.19 90.3502 444.025 105.913C442.234 118.771 431.838 128.44 416.898 131.146C415.802 131.36 414.733 131.574 413.531 131.842L412.248 132.137V145.557C412.248 145.878 411.98 146.119 411.686 146.119L411.633 146.093ZM399.553 144.941H411.045V131.628C411.499 131.065 413.237 130.69 413.237 130.69C414.439 130.423 415.535 130.181 416.657 129.994C431.33 127.315 441.112 118.235 442.876 105.699C444.96 90.7252 439.187 80.7875 424.755 74.3856C422.216 73.2606 419.544 72.2695 416.978 71.3052C415.642 70.7962 414.279 70.3141 412.943 69.7783C411.606 69.2694 410.297 68.7605 408.96 68.2515C405.62 66.9658 402.172 65.6532 398.831 64.2068C394.261 62.1978 392.283 58.4477 393.165 53.3315C393.94 48.8047 396.96 45.6707 401.637 44.4921C407.838 42.9652 413.263 44.4653 417.005 48.7511C418.689 50.6797 420.025 52.8226 421.468 55.0459C422.029 55.9298 422.591 56.8138 423.179 57.6977L439.802 51.3494C436.301 41.1973 430.368 34.9293 421.121 31.6882C414.119 29.2239 411.339 28.9024 411.312 28.9024C410.804 28.3399 410.537 18.3754 410.537 18.3754H399.179V28.4738C397.335 29.4381 396.907 29.5453 396.506 29.6257C381.433 32.5721 372.934 40.8759 371.223 54.2958C369.459 68.0908 375.66 78.1357 389.638 84.1358C391.482 84.9394 393.406 85.609 395.303 86.2787C396.319 86.6269 397.335 87.0019 398.35 87.3769C399.927 87.9662 401.504 88.5288 403.054 89.1181C406.929 90.5377 410.938 92.011 414.813 93.6449C419.09 95.4664 421.281 98.9754 420.934 103.502C420.559 108.565 417.86 112.181 413.183 113.949C407.784 116.012 402.065 115.851 397.094 113.494C392.524 111.351 389.103 107.547 387.446 102.779C387.152 101.922 386.805 101.065 386.457 100.181C386.163 99.4576 367.375 104.011 367.375 104.011C371.357 120.19 381.727 129.003 399.125 130.931C399.633 131.494 399.633 144.887 399.633 144.887L399.553 144.941Z" fill="#1A1A1A"/>
<path d="M316.328 318.811C320.177 301.667 320.631 285.194 320.631 285.033C321.78 285.221 321.326 301.801 316.89 318.382C316.809 318.65 316.596 318.811 316.328 318.811Z" fill="#1A1A1A"/>
<path d="M392.978 396.089C392.417 395.339 392.364 377.66 390.707 355.937C393.513 377.634 393.54 395.339 393.54 395.527L392.978 396.089Z" fill="#1A1A1A"/>
<path d="M303.393 376.214C321.967 372.41 343.562 355.267 357.673 340.025C357.032 338.418 354.065 331.293 349.362 325.052C344.631 318.757 340.889 314.873 339.82 313.802C337.415 315.355 324.239 323.927 312.907 333.088C324.694 322.105 339.446 312.703 339.58 312.596C340.328 312.703 344.604 316.829 350.27 324.382C355.669 331.561 358.823 339.865 358.849 339.972C344.524 356.017 322.529 373.482 303.473 376.214C303.473 376.214 303.42 376.214 303.393 376.214Z" fill="#1A1A1A"/>
<path d="M304.596 258.836C306.039 255.729 307.535 254.47 310.342 252.782C316.489 249.032 322.796 246.702 335.197 246.702C323.063 247.854 316.916 250.104 310.93 253.774C308.23 255.408 306.814 256.613 305.023 258.675C304.916 258.809 304.756 258.863 304.596 258.863V258.836Z" fill="#1A1A1A"/>
<path d="M354.359 246.997C372.239 245.845 393.352 241.264 399.045 228.434C401.103 223.8 402.225 218.416 402.466 211.987C402.813 202.906 401.183 192.754 397.869 183.406C402.279 192.486 403.936 202.799 403.615 212.04C403.375 218.603 402.225 224.121 400.114 228.889C395.09 240.22 378.012 246.997 354.386 246.997H354.359Z" fill="#1A1A1A"/>
<path d="M424.969 264.381C425.637 261.917 426.626 260.39 427.455 259.077C445.789 230.255 434.564 184.986 430.689 171.781C436.809 188.522 446.51 231.246 428.417 259.693C427.588 261.006 426.573 262.559 425.45 264.14C425.343 264.301 425.156 264.381 424.996 264.381H424.969Z" fill="#1A1A1A"/>
<path d="M408.239 183.54C407.838 183.379 403.401 180.004 398.698 177.031C394.021 174.084 391.455 169.397 392.711 166.075C392.765 165.941 398.003 152.95 402.787 152.387C403.562 152.307 404.711 152.494 405.727 153.968C409.735 159.78 402.68 169.798 402.386 170.227C401.531 169.477 408.346 159.754 404.791 154.611C404.23 153.807 403.615 153.432 402.92 153.512C399.606 153.914 395.009 163.289 393.78 166.477C392.871 168.861 394.502 173.013 399.312 176.04C404.07 179.04 408.56 182.442 408.586 182.468C408.586 183.433 408.426 183.486 408.239 183.486V183.54Z" fill="#1A1A1A"/>
<path d="M428.764 175.209C428.951 166.048 427.588 155.307 427.588 155.2C428.738 155.173 430.101 166.022 429.326 174.7C429.299 174.995 429.058 175.209 428.764 175.209Z" fill="#1A1A1A"/>
<path d="M356.631 336.624C364.194 334.293 380.016 318.757 381.246 314.579C382.047 311.82 379.642 310.721 379.535 310.668C380.203 308.766 380.15 307.56 379.214 306.569C378.867 306.194 378.52 305.953 378.145 305.793C377.557 305.552 376.889 305.659 376.061 306.141C376.622 304.507 377.638 304.373 378.546 304.748C379.054 304.962 379.562 305.31 380.016 305.793C381.192 307.052 381.379 308.632 380.577 309.971C381.727 310.748 383.036 312.409 382.315 314.9C381.005 319.346 364.863 335.338 356.711 336.624C356.684 336.624 356.658 336.624 356.631 336.624Z" fill="#1A1A1A"/>
<path d="M363.5 316.748C365.344 314.337 371.357 309.168 372.987 307.534C374.858 305.793 376.408 304.373 376.408 303.007C376.408 302.391 376.114 301.828 375.473 301.239C373.709 299.605 372.159 300.462 369.753 302.766C369.433 303.087 368.952 303.569 368.39 304.132C366.546 305.98 363.794 308.739 362.056 310.078C359.598 311.953 355.776 314.096 353.29 313.989C351.553 313.909 351.072 312.436 351.045 311.686C352.195 311.846 352.275 312.784 353.344 312.837C355.295 312.837 358.475 311.337 361.335 309.141C362.992 307.855 365.745 305.123 367.562 303.301C368.123 302.712 368.604 302.23 368.952 301.935C370.689 300.248 373.335 297.703 376.248 300.382C377.103 301.185 377.531 302.069 377.531 303.007C377.531 304.882 375.767 306.489 374.484 307.694C372.052 310.052 366.039 315.248 363.794 316.668C363.687 316.721 363.58 316.748 363.5 316.748Z" fill="#1A1A1A"/>
<path d="M342.039 315.462C343.027 312.65 344.23 309.221 345.192 306.462C345.647 305.176 346.048 304.051 346.395 303.221C346.609 302.766 346.769 302.23 346.956 301.667C347.651 299.498 348.586 296.525 351.981 297.087C349.522 297.864 348.854 299.498 348.052 302.016C347.865 302.605 347.678 303.194 347.464 303.676C347.117 304.48 346.742 305.578 346.288 306.837C345.299 309.65 344.07 313.186 342.52 315.221C342.413 315.382 342.226 315.462 342.065 315.462H342.039Z" fill="#1A1A1A"/>
<path d="M367.375 322.186C367.027 321.168 369.994 318.757 373.308 316.052C376.007 313.855 379.295 309.811 379.321 309.784C379.081 311.846 376.381 315.007 374.03 316.936C370.716 319.668 367.749 322.052 367.749 322.052C367.642 322.132 367.508 322.186 367.402 322.186H367.375Z" fill="#1A1A1A"/>
<path d="M401.049 184.638C399.366 184.638 398.163 184.29 397.842 183.406C397.361 182.04 398.858 180.433 402.413 178.477C398.671 181.852 398.885 182.924 398.938 183.031C399.259 183.942 405.486 183.727 415.749 180.111C420.105 178.584 424.061 176.816 426.92 175.129C430.261 173.147 430.769 172.102 430.689 171.834C430.555 171.406 430.528 171.325 429.326 171.379C430.956 170.2 431.41 170.415 431.758 171.379C432.212 172.665 430.822 174.191 427.535 176.12C424.622 177.834 420.586 179.656 416.15 181.209C412.007 182.656 405.139 184.665 401.076 184.665L401.049 184.638Z" fill="#1A1A1A"/>
<path d="M414.6 172.236C410.217 166.531 413.076 158.307 413.21 157.959C414.252 158.414 411.499 166.343 415.081 171.325C414.84 172.209 414.733 172.236 414.626 172.236H414.6Z" fill="#1A1A1A"/>
<path d="M513.646 210.594C508.488 210.594 504.319 206.389 504.319 201.246C504.319 196.103 508.515 191.897 513.646 191.897C518.777 191.897 522.973 196.103 522.973 201.246C522.973 206.389 518.777 210.594 513.646 210.594ZM513.646 193.022C509.129 193.022 505.441 196.692 505.441 201.219C505.441 205.746 509.103 209.415 513.646 209.415C518.189 209.415 521.824 205.746 521.824 201.219C521.824 196.692 518.136 193.022 513.646 193.022Z" fill="white"/>
<path d="M16.0355 159.164C10.8774 159.164 6.70819 154.959 6.70819 149.816C6.70819 144.673 10.9042 140.467 16.0355 140.467C21.1669 140.467 25.3629 144.673 25.3629 149.816C25.3629 154.959 21.1669 159.164 16.0355 159.164ZM16.0355 141.592C11.5189 141.592 7.85741 145.262 7.85741 149.789C7.85741 154.316 11.5189 157.986 16.0355 157.986C20.5522 157.986 24.2137 154.316 24.2137 149.789C24.2137 145.262 20.5522 141.592 16.0355 141.592Z" fill="white"/>
<path d="M180.026 220.451C176.525 220.451 173.05 219.112 170.405 216.46L162.681 208.719C163.483 207.915 171.206 215.657 171.206 215.657C176.07 220.532 183.981 220.532 188.846 215.657L264.56 141.619C269.424 136.744 269.424 128.815 264.56 123.94L259.536 118.904C257.184 116.547 254.03 115.235 250.716 115.235C247.402 115.235 244.248 116.547 241.897 118.904L180.454 178.638C179.652 178.638 157.149 156.084 157.149 156.084C154.797 153.727 151.67 152.414 148.329 152.414C144.988 152.414 141.861 153.727 139.509 156.084L134.485 161.12C132.133 163.477 130.823 166.638 130.823 169.959C130.823 173.281 132.133 176.441 134.485 178.799L146.832 191.174C146.031 191.978 133.683 179.602 133.683 179.602C131.117 177.031 129.701 173.602 129.701 169.959C129.701 166.316 131.117 162.888 133.683 160.316L138.708 155.28C141.273 152.709 144.694 151.262 148.356 151.262C152.017 151.262 155.411 152.682 157.977 155.28L180.079 177.433L241.121 118.101C243.687 115.529 247.108 114.11 250.743 114.11C254.378 114.11 257.798 115.529 260.364 118.101L265.389 123.137C270.68 128.467 270.68 137.119 265.389 142.45L189.674 216.487C187.028 219.139 183.527 220.478 180.053 220.478L180.026 220.451Z" fill="#1A1A1A"/>
<path d="M286.556 343.481C265.041 343.481 237.46 329.311 219.34 314.953C219.153 314.337 220.436 305.552 224.257 298.212C229.389 288.408 238.208 283.801 238.582 283.613C239.09 283.613 261.754 294.998 261.754 294.998C261.246 296.016 238.85 284.765 238.85 284.765C237.38 285.596 229.763 290.176 225.273 298.748C221.959 305.123 220.596 312.623 220.302 314.257C238.262 328.4 265.389 342.329 286.529 342.329C287.01 342.329 287.491 342.329 287.972 342.329C300.239 341.954 307.883 338.686 312.025 332.07C308.631 339.65 300.694 343.079 287.999 343.481C287.518 343.481 287.037 343.481 286.529 343.481H286.556Z" fill="#1A1A1A"/>
<path d="M312.533 332.927C315.393 326.686 316.489 318.918 315.393 308.337C312.881 284.417 305.852 263.577 305.772 263.363C300.186 246.032 282.333 237.595 272.017 237.327C282.68 236.443 301.121 245.148 306.867 262.988C306.947 263.176 314.03 284.122 316.542 308.177C317.691 319.025 316.542 327.007 313.041 332.606C312.934 332.766 312.747 332.874 312.56 332.874L312.533 332.927Z" fill="#1A1A1A"/>
<path d="M280.783 291.007C279.099 281.471 280.916 270.113 280.943 270.006C282.039 270.301 280.275 281.497 281.344 290.364C280.836 291.007 280.809 291.007 280.783 291.007Z" fill="#1A1A1A"/>
<path d="M251.839 200.871C251.384 200.79 251.064 201.005 250.957 202.639C250.823 204.487 251.304 204.808 251.705 204.781C252.106 204.781 252.533 204.192 252.507 202.88C252.48 201.567 252.453 200.951 251.839 200.871Z" fill="#1A1A1A"/>
<path d="M238.502 201.112C238.048 201.058 237.754 201.272 237.674 202.906C237.594 204.755 238.075 205.049 238.476 205.022C238.876 204.996 239.277 204.406 239.224 203.094C239.17 201.781 239.117 201.165 238.502 201.085V201.112Z" fill="#1A1A1A"/>
<path d="M265.148 230.711C264.587 230.175 263.625 213.701 263.625 213.701C264.774 213.621 265.709 230.094 265.709 230.094C265.175 230.711 265.148 230.711 265.148 230.711Z" fill="#1A1A1A"/>
<path d="M244.275 227.791C241.309 227.791 238.235 227.389 236.311 224.469C234.28 221.389 234.226 217.371 234.199 213.835C234.199 213.058 234.199 212.308 234.146 211.558C234.066 209.148 234.333 193.638 234.333 192.995C235.482 193.183 235.188 209.148 235.295 211.505C235.322 212.255 235.322 213.032 235.349 213.808C235.375 217.371 235.429 221.041 237.273 223.826C239.251 226.773 242.672 226.666 246.012 226.612C246.44 226.612 246.868 226.612 247.268 226.585C250.101 226.559 252.4 226.318 254.484 225.809C252.56 227.443 250.182 227.684 247.268 227.71C246.868 227.71 246.44 227.71 246.039 227.737C245.478 227.737 244.89 227.764 244.302 227.764L244.275 227.791Z" fill="#1A1A1A"/>
<path d="M267.046 214.853C265.469 214.853 263.892 214.344 262.556 213.326C265.602 214.21 268.836 214.13 271.108 212.228C273.781 209.978 274.155 205.987 271.91 203.308C270.841 202.022 269.317 201.219 267.634 201.058C265.923 200.897 264.32 201.406 263.01 202.505C262.155 203.201 261.513 204.138 261.139 205.156C260.524 203.549 261.273 202.451 262.288 201.621C263.812 200.335 265.763 199.719 267.74 199.906C269.718 200.094 271.536 201.031 272.792 202.558C274.075 204.085 274.663 206.04 274.502 208.023C274.315 210.005 273.38 211.826 271.856 213.085C270.467 214.237 268.783 214.826 267.072 214.826L267.046 214.853Z" fill="#1A1A1A"/>
<path d="M235.028 199.049C234.52 198.219 235.883 195.326 239.946 196.37C236.551 196.665 235.589 198.647 235.536 198.728C235.429 198.942 235.242 199.049 235.028 199.049Z" fill="#1A1A1A"/>
<path d="M254.725 199.237C251.571 195.62 248.979 197.254 248.845 197.335C248.257 196.344 251.839 194.094 255.153 198.326C254.966 199.21 254.832 199.263 254.698 199.263L254.725 199.237Z" fill="#1A1A1A"/>
<path d="M243.046 230.764C242.484 230.202 242.458 227.202 242.458 227.202C243.607 227.202 243.634 230.175 243.634 230.175C243.26 230.568 243.072 230.764 243.072 230.764H243.046Z" fill="#1A1A1A"/>
<path d="M271.91 202.638C274.475 198.165 275.464 192.915 274.181 188.388C273.139 184.718 270.787 182.12 267.58 181.075C265.896 180.513 263.945 180.352 261.781 180.567C260.605 180.674 258.306 180.781 258.226 180.781C258.226 179.629 260.525 179.549 261.674 179.415C263.972 179.2 266.083 179.361 267.928 179.977C271.509 181.156 274.128 184.022 275.277 188.067C276.667 192.942 275.571 198.621 272.551 202.156C272.204 202.558 272.043 202.612 271.883 202.612L271.91 202.638Z" fill="#1A1A1A"/>
<path d="M269.264 211.532C269.023 211.478 263.651 208.853 263.651 208.853C263.491 207.942 268.328 202.933 268.328 202.933C269.157 203.737 264.854 208.183 264.854 208.183L269.531 210.46C269.692 211.424 269.504 211.558 269.291 211.558L269.264 211.532Z" fill="#1A1A1A"/>
<path d="M255.447 184.263C254.992 183.326 257.772 179.817 257.772 179.817C258.654 180.54 255.901 184.022 255.901 184.022C255.794 184.156 255.634 184.236 255.447 184.236V184.263Z" fill="#1A1A1A"/>
<path d="M281.798 314.07C279.794 314.07 277.736 313.186 276.453 311.766C276.346 311.659 274.048 309.06 274.422 307.052C275.331 308.337 276.507 310.132 277.308 311.016C278.377 312.194 280.115 312.945 281.798 312.945C283.536 312.891 284.899 312.061 285.46 310.909C285.861 310.105 285.887 309.141 285.887 308.31C285.834 302.525 283.749 295.239 278.137 292.105C272.712 289.078 268.061 291.087 268.008 291.087C267.767 289.935 272.765 287.792 278.671 291.087C284.711 294.462 286.93 302.203 287.01 308.284C287.01 309.248 286.956 310.4 286.475 311.391C285.727 312.918 284.017 313.989 282.092 314.043C281.985 314.043 281.905 314.043 281.798 314.043V314.07Z" fill="#1A1A1A"/>
<path d="M254.832 292.748C256.917 287.498 260.418 285.435 264.988 285.703C268.195 285.864 270.44 286.989 272.524 289.48C269.772 287.98 267.847 286.989 264.934 286.828C260.818 286.667 257.718 288.408 255.34 292.453C255.233 292.641 255.046 292.748 254.859 292.748H254.832Z" fill="#1A1A1A"/>
<path d="M202.609 333.49C195.714 333.49 189.701 332.445 186.707 329.498C173.157 316.186 187.295 289.721 191.946 281.015C197.157 271.211 216.026 238.988 239.224 235.264C216.747 240.032 198.119 271.881 192.961 281.551C180.587 304.694 178.823 320.123 187.536 328.668C196.783 337.749 238.235 327.061 238.663 326.954C237.754 328.373 218.004 333.463 202.663 333.463L202.609 333.49Z" fill="#1A1A1A"/>
<path d="M261.674 203.603C256.783 198.754 253.87 191.094 252.961 188.361C250.983 190.477 244.836 195.862 234.761 193.558C246.654 195.058 252.667 186.968 252.721 186.888C253.763 187.156 256.89 197.201 262.101 202.638C261.968 203.549 261.834 203.603 261.7 203.603H261.674Z" fill="#1A1A1A"/>
<path d="M200.952 397C205.229 371.74 206.004 333.168 206.03 332.766C207.153 333.168 206.378 371.848 201.514 396.518C201.46 396.786 201.22 396.973 200.952 396.973V397Z" fill="#1A1A1A"/>
<path d="M304.221 397C303.74 385.83 300.346 341.418 300.319 340.99C301.495 341.338 304.89 385.803 304.809 396.437C304.809 396.759 304.542 397 304.248 397H304.221Z" fill="#1A1A1A"/>
<path d="M258.707 266.979C258.226 266.711 248.017 249.89 248.017 249.89L239.144 262.426C238.101 262.104 237.941 237.032 237.941 237.032C238.048 236.711 242.591 229.853 242.591 229.853C243.607 230.014 248.364 247.666 248.364 247.666L265.041 229.452C265.87 229.452 272.444 236.416 272.444 236.416C272.551 237.032 259.268 266.631 259.268 266.631C258.761 266.979 258.761 266.979 258.761 266.979H258.707ZM248.765 248.898L258.627 265.158L271.322 236.898L265.442 230.657L248.765 248.872V248.898ZM239.064 237.193L239.224 260.309L247.429 248.711L242.805 231.541L239.064 237.193Z" fill="#1A1A1A"/>
<path d="M248.765 286.212C251.758 273.595 256.035 262.801 256.061 262.693C257.077 263.229 252.827 273.944 249.3 285.783C249.219 286.024 249.006 286.185 248.765 286.185V286.212Z" fill="#1A1A1A"/>
<path d="M237.914 283.774C237.567 268.694 238.903 260.952 238.903 260.872C239.999 261.14 238.689 268.801 238.476 283.212C238.476 283.533 238.208 283.774 237.914 283.774Z" fill="#1A1A1A"/>
<path d="M264.934 286.855C264.801 286.855 252.694 286.426 242.137 286.265C252.72 285.274 264.827 285.703 264.934 285.703C265.469 286.614 265.228 286.855 264.934 286.855Z" fill="#1A1A1A"/>
<path d="M193.629 305.578C195.714 295.882 199.563 290.658 205.603 287.926C205.736 287.873 206.912 287.685 206.912 287.685C217.549 285.837 226.663 294.569 227.064 294.944C226.182 295.667 217.202 287.042 207.126 288.81C200.364 291.596 196.73 296.605 194.191 305.176C194.111 305.418 193.897 305.578 193.656 305.578H193.629Z" fill="#1A1A1A"/>
<path d="M205.068 288.81C204.507 288.355 203.01 283.372 210.093 280.238C216.988 277.158 225.032 282.328 225.353 282.569C224.658 283.48 216.881 278.471 210.547 281.283C204.453 283.989 205.549 287.899 205.603 288.087C205.175 288.81 205.122 288.837 205.068 288.837V288.81Z" fill="#1A1A1A"/>
<path d="M238.502 284.605C238.021 284.364 234.413 280.158 226.342 277.265C218.485 274.453 214.048 280.185 213.995 280.238C213.139 279.488 218.084 273.086 226.716 276.194C235.108 279.194 238.77 283.48 238.93 283.667C238.743 284.551 238.636 284.605 238.502 284.605Z" fill="#1A1A1A"/>
<path d="M249.219 267.033L242.672 266.47C242.164 265.961 241.415 257.497 241.415 257.497C242.565 257.39 243.26 265.372 243.26 265.372L248.952 265.881L253.896 258.89C254.832 259.559 249.674 266.792 249.674 266.792C249.567 266.952 249.38 267.033 249.193 267.033H249.219Z" fill="#1A1A1A"/>
<path d="M250.369 281.042C249.807 280.506 248.631 266.497 248.631 266.497C249.781 266.39 250.93 280.426 250.93 280.426C250.395 281.042 250.369 281.042 250.369 281.042Z" fill="#1A1A1A"/>
<path d="M238.128 275.819C237.62 274.988 242.19 265.64 242.19 265.64C243.206 266.149 238.636 275.497 238.636 275.497C238.529 275.712 238.342 275.819 238.128 275.819Z" fill="#1A1A1A"/>
<path d="M220.382 276.703C219.874 275.685 221.424 267.569 224.391 261.729C222.493 267.917 220.943 276.14 220.943 276.221C220.89 276.488 220.649 276.703 220.382 276.703Z" fill="#1A1A1A"/>
<path d="M270.493 312.623C267.874 312.462 266.003 311.364 265.095 309.757C264.373 308.471 264.266 306.998 264.293 305.846C264.32 303.382 264.346 301.909 263.812 300.435C263.17 298.667 262.075 297.167 261.059 295.908C263.01 296.525 264.186 298.132 264.881 300.06C265.496 301.748 265.469 303.409 265.442 305.016C265.442 307.373 265.629 308.391 266.083 309.221C266.805 310.507 268.328 311.364 270.066 311.498C270.974 311.552 271.749 311.418 272.337 311.069C273.219 310.561 273.861 309.462 274.262 307.855C274.449 307.025 274.582 306.114 274.636 305.203C274.769 302.712 274.609 298.025 271.99 294.676C269.825 291.917 266.725 290.257 263.732 290.257C259.455 290.283 258.173 293.391 258.146 293.417C257.157 292.828 258.68 289.131 263.651 289.105C267.072 289.105 270.493 290.926 272.872 293.953C274.983 296.658 276.026 300.676 275.785 305.23C275.732 306.221 275.598 307.159 275.384 308.069C274.93 309.998 274.101 311.337 272.952 312.007C272.284 312.409 271.482 312.596 270.547 312.596L270.493 312.623Z" fill="#1A1A1A"/>
<path d="M247.215 219.032C246.6 219.032 245.905 218.898 245.211 218.657C246.841 218.014 247.91 217.987 248.712 217.505C250.075 216.674 250.395 214.826 250.395 214.799C251.518 215.067 251.117 217.398 249.3 218.469C248.685 218.844 247.99 219.032 247.242 219.032H247.215Z" fill="#1A1A1A"/>
<path d="M289.255 310.882C288.186 310.882 287.117 310.587 286.235 310.373C287.838 309.623 289.629 310.105 290.939 309.355C292.302 308.552 292.569 306.677 292.596 305.927C292.916 300.81 289.255 296.283 287.037 294.007C283.723 290.632 278.645 292.132 278.591 292.158C278.484 290.98 284.043 289.346 287.865 293.203C290.217 295.587 294.092 300.435 293.745 305.98C293.611 307.989 292.809 309.596 291.5 310.346C290.778 310.748 290.003 310.909 289.255 310.909V310.882Z" fill="#1A1A1A"/>
<path d="M243.847 213.755C242.484 213.755 240.293 213.567 239.304 212.496C238.85 212.014 238.689 211.398 238.823 210.701C239.331 207.835 241.923 199.21 242.03 198.835C243.099 199.263 240.427 208.103 239.946 210.889C241.015 212.657 243.928 212.63 244.863 212.576C244.836 213.728 244.409 213.755 243.847 213.755Z" fill="#1A1A1A"/>
<path d="M234.52 200.094C233.959 199.746 225.22 187.585 233.478 179.977C241.202 172.852 251.117 172.772 258.173 179.79C250.796 174.057 241.496 174.138 234.253 180.808C226.77 187.692 234.894 199.049 234.975 199.156C234.761 200.04 234.627 200.067 234.52 200.067V200.094Z" fill="#1A1A1A"/>
<path d="M64.3026 310.748C63.9017 310.587 25.1491 271.586 25.1491 271.586C24.5344 270.97 24.2137 270.167 24.2137 269.31C24.2137 268.452 24.5344 267.649 25.1491 267.033C26.3518 265.827 28.4898 265.827 29.6925 267.033L65.2647 302.793C64.463 303.596 28.8907 267.836 28.8907 267.836C28.1157 267.06 26.7526 267.06 25.9509 267.836C25.55 268.211 25.3362 268.747 25.3362 269.31C25.3362 269.872 25.55 270.381 25.9509 270.783L64.7035 309.757C64.5966 310.668 64.4362 310.721 64.3026 310.721V310.748Z" fill="#1A1A1A"/>
<path d="M23.7327 139.45C24.6681 136.771 26.0845 135.083 27.5545 133.476C26.9665 135.833 25.55 137.521 24.187 139.235C24.0801 139.369 23.9197 139.45 23.7327 139.45ZM32.5255 129.673C33.7014 127.155 35.3585 125.655 37.0155 124.235C36.1068 126.512 34.4765 127.985 32.8997 129.512C32.7928 129.619 32.6591 129.673 32.4988 129.673H32.5255ZM42.5745 121.208C44.0444 118.878 45.8885 117.646 47.7593 116.52C46.5032 118.61 44.6858 119.842 42.9219 121.101C42.815 121.181 42.7081 121.208 42.5745 121.208ZM53.7993 114.378C55.4831 112.315 57.5143 111.404 59.5722 110.574C57.9686 112.449 55.9642 113.36 54.0666 114.324C53.9864 114.351 53.9063 114.378 53.7993 114.378ZM65.9864 109.476C67.9374 107.708 70.0755 107.145 72.2135 106.663C70.3427 108.244 68.2314 108.806 66.1467 109.449C66.0933 109.449 66.0398 109.449 65.9864 109.449V109.476ZM106.583 107.922C106.182 107.842 105.648 107.708 104.846 107.52C105.942 106.583 106.476 106.743 106.663 106.797C106.85 107.895 106.717 107.922 106.583 107.922ZM78.8148 106.663C80.8995 105.243 83.1177 105.029 85.336 104.922C83.1979 106.181 81.0331 106.368 78.895 106.663C78.8683 106.663 78.8416 106.663 78.8148 106.663ZM98.4851 106.476C96.2936 106.235 94.1288 106.074 91.9105 105.993C94.1823 104.922 96.4005 105.083 98.5386 105.324C99.0196 106.261 98.7524 106.476 98.4851 106.476Z" fill="white"/>
<path d="M15.7149 254.149C15.1803 253.8 13.8708 251.738 12.0534 248.041C14.8864 251.175 16.1959 253.265 16.2226 253.265C15.9554 254.122 15.8485 254.149 15.7416 254.149H15.7149ZM9.7817 242.389C8.39195 240.032 7.56344 237.97 6.81512 235.88C8.63248 237.541 9.46098 239.577 10.3162 241.586C9.94205 242.363 9.86187 242.389 9.7817 242.389ZM5.26501 230.014C4.08907 227.496 3.47437 225.353 2.96658 223.21C4.59686 225.032 5.15811 227.175 5.79953 229.264C5.37191 229.987 5.31846 230.014 5.26501 230.014ZM2.1648 217.21C1.20267 214.558 0.881956 212.335 0.641423 210.192C2.03117 212.201 2.35188 214.371 2.72605 216.541C2.24498 217.21 2.19153 217.21 2.1648 217.21ZM0.668149 204.139C0.026726 202.156 0 200.71 0 199.263C0 198.513 0 197.737 0.0267259 196.96C1.14922 197.737 1.14922 198.513 1.14922 199.263C1.14922 200.683 1.17594 202.13 1.25612 203.549C0.694875 204.139 0.694874 204.139 0.694874 204.139H0.668149ZM1.01559 190.986C0.668149 188.147 0.98886 185.951 1.36302 183.781C2.11135 186.111 1.79064 188.308 1.57683 190.477C1.5501 190.772 1.30957 190.986 1.01559 190.986ZM3.36747 178.049C3.36747 175.209 4.03562 173.066 4.78394 171.004C5.13138 173.441 4.46323 175.531 3.90199 177.62C3.84854 177.888 3.608 178.049 3.34074 178.049H3.36747ZM7.80398 165.673C7.61689 164.147 7.9376 163.45 8.28504 162.754C8.63248 162.03 8.97992 161.334 9.35408 160.611C10.0222 161.816 9.67479 162.539 9.32735 163.236C8.97992 163.932 8.65921 164.629 8.33849 165.325C8.23159 165.539 8.04451 165.647 7.8307 165.647L7.80398 165.673Z" fill="white"/>
<path d="M134.565 254.657C107.331 233.711 91.2958 201.326 91.2958 167.95C91.2958 108.163 139.83 59.5192 199.482 59.5192C259.135 59.5192 307.669 108.163 307.669 167.95C307.669 194.013 298.315 219.219 281.317 238.88C297.273 218.657 306.547 193.719 306.547 167.95C306.547 108.779 258.52 60.671 199.509 60.671C140.498 60.671 92.4718 108.806 92.4718 167.95C92.4718 200.978 108.347 233.014 134.939 253.64C134.939 254.577 134.752 254.657 134.592 254.657H134.565Z" fill="#1A1A1A"/>
<path d="M236.284 53.8405C235.723 53.0905 236.124 50.5994 237.433 46.6886C237.219 50.8404 236.845 53.3316 236.845 53.3316C236.792 53.6262 236.551 53.8137 236.284 53.8137V53.8405ZM240.453 41.3581C240.881 38.5455 241.95 36.5901 243.099 34.6883C242.939 37.1526 241.896 39.0812 240.988 41.0366C240.881 41.2509 240.694 41.3581 240.48 41.3581H240.453ZM247.295 30.1346C248.204 27.456 249.647 25.7684 251.17 24.1881C250.502 26.5452 249.059 28.206 247.749 29.9203C247.643 30.0543 247.482 30.1346 247.295 30.1346ZM256.382 20.6523C257.692 18.2415 259.482 16.9022 261.326 15.6432C260.15 17.8129 258.413 19.1254 256.756 20.5183C256.649 20.5987 256.516 20.6523 256.382 20.6523ZM347.651 18.8844C345.727 17.3575 344.016 15.9914 342.146 14.7325C344.684 15.1075 346.448 16.4736 348.025 17.8933C347.945 18.8308 347.811 18.8844 347.651 18.8844ZM267.286 13.3128C268.916 11.2235 270.921 10.2592 272.979 9.37522C271.402 11.2771 269.424 12.2146 267.553 13.2325C267.473 13.286 267.366 13.3128 267.286 13.3128ZM336.854 11.411C334.689 10.3395 332.711 9.40201 330.68 8.59842C333.166 8.35734 335.197 9.29486 337.121 10.3395C337.255 11.3038 337.068 11.411 336.854 11.411ZM279.366 8.22341C281.077 6.4823 283.054 5.94657 285.032 5.43763C283.348 7.01803 281.397 7.58054 279.527 8.16984C279.473 8.16984 279.42 8.19663 279.34 8.19663L279.366 8.22341ZM324.693 6.53587C322.448 5.91979 320.337 5.43763 318.199 5.06263C320.578 4.31261 322.742 4.82155 324.854 5.41085C325.175 6.37516 324.961 6.53587 324.693 6.53587ZM292.141 5.14299C294.253 3.64295 296.471 3.3483 298.609 3.1608C296.605 4.50011 294.413 4.76798 292.248 5.14299C292.221 5.14299 292.195 5.14299 292.168 5.14299H292.141ZM311.785 4.23225C309.807 4.07153 307.803 3.99117 305.798 3.99117C307.829 2.83936 309.861 2.91972 311.838 3.10723C312.346 4.01796 312.079 4.25904 311.785 4.25904V4.23225Z" fill="white"/>
<path d="M406.796 159.164C447.954 157.209 481.441 122.949 481.441 81.6715C481.441 40.3938 447.259 5.3037 405.245 5.3037C363.232 5.3037 329.05 39.5634 329.05 81.6715C329.05 120.672 358.181 153.298 396.773 157.584C357.46 154.396 327.901 121.262 327.901 81.6715C327.901 38.9205 362.591 4.15189 405.245 4.15189C447.9 4.15189 482.59 38.9205 482.59 81.6715C482.59 102.109 474.733 121.396 460.461 135.967C446.19 150.512 427.161 158.762 406.822 159.164H406.796Z" fill="#1A1A1A"/>
<path d="M463.187 295.266C464.818 293.23 466.742 292.158 468.666 291.007C467.33 293.149 465.379 294.248 463.455 295.212C463.374 295.239 463.294 295.266 463.187 295.266ZM474.439 288.462C475.882 286.158 477.619 284.819 479.276 283.426C478.314 285.703 476.55 287.069 474.76 288.355C474.653 288.435 474.546 288.462 474.439 288.462ZM484.541 280.051C485.717 277.56 487.241 275.979 488.684 274.372C488.069 276.756 486.519 278.363 484.942 279.89C484.835 279.997 484.702 280.051 484.541 280.051ZM493.334 270.274C494.216 267.622 495.499 265.854 496.702 264.033C496.434 266.497 495.152 268.319 493.789 270.06C493.682 270.194 493.495 270.274 493.334 270.274ZM500.604 259.318C501.165 256.586 502.18 254.631 503.116 252.649C503.196 255.14 502.18 257.095 501.111 259.024C501.005 259.211 500.817 259.318 500.604 259.318ZM506.243 247.425C506.51 244.613 507.232 242.55 507.9 240.488C508.327 242.925 507.579 245.041 506.777 247.077C506.697 247.291 506.483 247.452 506.243 247.452V247.425ZM510.225 234.889C510.198 232.103 510.653 229.934 511.053 227.791C511.775 230.175 511.294 232.371 510.786 234.461C510.733 234.728 510.492 234.889 510.225 234.889ZM512.63 221.951C512.336 219.166 512.55 216.996 512.71 214.799C513.699 217.103 513.486 219.3 513.192 221.469C513.165 221.764 512.898 221.978 512.63 221.978V221.951Z" fill="white"/>
<path d="M512.336 183.406C511.481 180.754 511.134 178.558 510.76 176.441C512.283 178.397 512.63 180.593 512.898 182.763C512.39 183.406 512.363 183.406 512.336 183.406ZM509.984 170.441C508.915 167.87 508.381 165.727 507.766 163.664C509.477 165.432 510.038 167.575 510.519 169.745C510.038 170.441 510.011 170.441 509.958 170.441H509.984ZM506.323 157.798C505.067 155.361 504.292 153.298 503.463 151.289C505.361 152.896 506.163 154.959 506.884 157.048C506.483 157.798 506.403 157.798 506.35 157.798H506.323ZM501.272 145.637C499.802 143.334 498.786 141.405 497.717 139.53C499.775 140.869 500.817 142.825 501.78 144.834C501.432 145.637 501.352 145.664 501.272 145.664V145.637ZM494.777 134.199C493.094 132.11 491.811 130.315 490.501 128.601C492.746 129.646 494.029 131.44 495.258 133.289C494.991 134.146 494.884 134.173 494.777 134.173V134.199ZM486.733 123.806C483.526 120.592 481.682 119.119 481.655 119.092C482.43 118.262 484.301 119.735 487.161 122.842C487.027 123.753 486.893 123.806 486.733 123.806Z" fill="white"/>
<path d="M333.754 211.398C333.166 210.782 332.685 202.772 329.264 197.335C330.226 196.665 333.566 198.942 334.823 201.888L356.177 197.228C355.936 195.379 354.787 188.763 349.602 185.495C345.353 182.817 339.446 182.977 331.99 185.951C339.366 181.745 345.647 181.638 350.217 184.531C356.711 188.656 357.326 197.281 357.353 197.629C356.898 198.219 334.582 203.121 334.582 203.121C333.486 201.46 332.524 200.281 331.589 199.344C333.914 204.621 334.288 210.514 334.315 210.808C333.78 211.424 333.754 211.424 333.754 211.424V211.398Z" fill="#1A1A1A"/>
</g>
<defs>
<clipPath id="clip0_1_356">
<rect width="523" height="397" fill="white"/>
</clipPath>
</defs>
</svg>
